<?xml version="1.0" encoding="UTF-8"?>
<svg xmlns="http://www.w3.org/2000/svg" xmlns:xlink="http://www.w3.org/1999/xlink" width="40pt" height="40pt" viewBox="0 0 40 40" version="1.1">
<defs>
<linearGradient id="linear0" gradientUnits="userSpaceOnUse" x1="82.576" y1="97.3284" x2="114.9192" y2="97.3284" gradientTransform="matrix(-0.3125,0,0,0.3125,40.144781,0)">
<stop offset="0" style="stop-color:rgb(100%,42.745098%,0%);stop-opacity:1;"/>
<stop offset="0.2487" style="stop-color:rgb(100%,60.784314%,0%);stop-opacity:1;"/>
<stop offset="0.5135" style="stop-color:rgb(100%,77.647059%,0%);stop-opacity:1;"/>
<stop offset="0.721" style="stop-color:rgb(100%,87.843137%,0%);stop-opacity:1;"/>
<stop offset="0.8439" style="stop-color:rgb(100%,91.764706%,0%);stop-opacity:1;"/>
</linearGradient>
<filter id="alpha" filterUnits="objectBoundingBox" x="0%" y="0%" width="100%" height="100%">
  <feColorMatrix type="matrix" in="SourceGraphic" values="0 0 0 0 1 0 0 0 0 1 0 0 0 0 1 0 0 0 1 0"/>
</filter>
<mask id="mask0">
  <g filter="url(#alpha)">
<rect x="0" y="0" width="40" height="40" style="fill:rgb(0%,0%,0%);fill-opacity:0.2;stroke:none;"/>
  </g>
</mask>
<clipPath id="clip1">
  <rect x="0" y="0" width="40" height="40"/>
</clipPath>
<g id="surface5" clip-path="url(#clip1)">
<path style=" stroke:none;fill-rule:nonzero;fill:rgb(25.882353%,25.882353%,25.882353%);fill-opacity:1;" d="M 12.359375 25.988281 C 12.804688 25.988281 13.148438 26.101562 13.375 26.328125 C 14.234375 27.1875 13.472656 29.867188 11.007812 32.335938 C 9.226562 34.117188 6.257812 34.640625 4.914062 34.789062 C 5.066406 33.445312 5.589844 30.480469 7.367188 28.699219 C 9.015625 27.050781 10.976562 25.988281 12.359375 25.988281 M 12.359375 25.363281 C 10.855469 25.363281 8.757812 26.425781 6.929688 28.257812 C 4.371094 30.8125 4.234375 35.472656 4.234375 35.472656 C 4.234375 35.472656 8.890625 35.335938 11.449219 32.777344 C 14.007812 30.222656 15.070312 27.136719 13.820312 25.890625 C 13.460938 25.527344 12.960938 25.363281 12.359375 25.363281 Z M 12.359375 25.363281 "/>
</g>
<linearGradient id="linear1" gradientUnits="userSpaceOnUse" x1="93.5449" y1="91.9564" x2="110.2949" y2="109.2064" gradientTransform="matrix(-0.3125,0,0,0.3125,40.144781,0)">
<stop offset="0.00444748" style="stop-color:rgb(77.647059%,15.686275%,15.686275%);stop-opacity:1;"/>
<stop offset="0.2711" style="stop-color:rgb(84.313725%,32.54902%,15.294118%);stop-opacity:1;"/>
<stop offset="0.5983" style="stop-color:rgb(91.372549%,50.588235%,14.901961%);stop-opacity:1;"/>
<stop offset="0.8504" style="stop-color:rgb(96.078431%,61.568627%,14.509804%);stop-opacity:1;"/>
<stop offset="0.9953" style="stop-color:rgb(97.647059%,65.882353%,14.509804%);stop-opacity:1;"/>
</linearGradient>
<mask id="mask1">
  <g filter="url(#alpha)">
<rect x="0" y="0" width="40" height="40" style="fill:rgb(0%,0%,0%);fill-opacity:0.2;stroke:none;"/>
  </g>
</mask>
<clipPath id="clip2">
  <rect x="0" y="0" width="40" height="40"/>
</clipPath>
<g id="surface8" clip-path="url(#clip2)">
<path style=" stroke:none;fill-rule:nonzero;fill:rgb(25.882353%,25.882353%,25.882353%);fill-opacity:1;" d="M 23.164062 24.683594 C 23.21875 24.835938 23.277344 25.011719 23.332031 25.207031 C 23.542969 25.980469 23.722656 27.214844 23.351562 28.683594 C 22.878906 30.566406 22.171875 31.371094 21.34375 32.078125 C 21.238281 30.882812 21.007812 29.257812 19.808594 28.066406 C 19.371094 27.628906 18.859375 27.296875 18.355469 27.050781 L 23.164062 24.683594 M 23.601562 23.425781 L 15.800781 27.269531 C 15.800781 27.269531 17.875 27.460938 19.148438 28.730469 C 20.453125 30.039062 20.355469 32.121094 20.503906 33.160156 C 20.535156 33.382812 20.695312 33.492188 20.886719 33.492188 C 21.019531 33.492188 21.164062 33.441406 21.289062 33.335938 C 22.429688 32.402344 23.585938 31.582031 24.257812 28.914062 C 25.070312 25.6875 23.601562 23.425781 23.601562 23.425781 Z M 23.601562 23.425781 "/>
</g>
<mask id="mask2">
  <g filter="url(#alpha)">
<rect x="0" y="0" width="40" height="40" style="fill:rgb(0%,0%,0%);fill-opacity:0.2;stroke:none;"/>
  </g>
</mask>
<clipPath id="clip3">
  <rect x="0" y="0" width="40" height="40"/>
</clipPath>
<g id="surface11" clip-path="url(#clip3)">
<path style=" stroke:none;fill-rule:nonzero;fill:rgb(25.882353%,25.882353%,25.882353%);fill-opacity:1;" d="M 13.730469 16.660156 C 14.253906 16.660156 14.703125 16.714844 15.058594 16.785156 L 12.714844 21.753906 C 12.464844 21.304688 12.144531 20.847656 11.726562 20.433594 C 10.617188 19.324219 9.144531 19.046875 7.980469 18.929688 C 8.992188 18.160156 10.363281 17.277344 11.710938 16.925781 C 12.386719 16.746094 13.066406 16.660156 13.730469 16.660156 M 13.730469 15.722656 C 13.070312 15.722656 12.3125 15.800781 11.480469 16.015625 C 9.480469 16.539062 7.5 18.058594 6.460938 18.953125 C 6.15625 19.214844 6.265625 19.683594 6.640625 19.738281 C 7.679688 19.882812 9.761719 19.789062 11.070312 21.09375 C 12.34375 22.367188 12.609375 24.175781 12.609375 24.175781 L 16.375 16.195312 C 16.375 16.195312 15.363281 15.722656 13.730469 15.722656 Z M 13.730469 15.722656 "/>
</g>
<mask id="mask3">
  <g filter="url(#alpha)">
<rect x="0" y="0" width="40" height="40" style="fill:rgb(0%,0%,0%);fill-opacity:0.2;stroke:none;"/>
  </g>
</mask>
<clipPath id="clip4">
  <rect x="0" y="0" width="40" height="40"/>
</clipPath>
<g id="surface14" clip-path="url(#clip4)">
<path style=" stroke:none;fill-rule:nonzero;fill:rgb(25.882353%,25.882353%,25.882353%);fill-opacity:1;" d="M 11.960938 24.914062 L 15.058594 28.015625 L 14.082031 29.605469 C 14.050781 29.609375 14.015625 29.609375 13.976562 29.609375 C 13.675781 29.609375 12.617188 29.53125 11.6875 28.539062 C 10.507812 27.277344 10.324219 26.292969 10.339844 25.910156 L 11.960938 24.914062 M 12.023438 23.824219 C 11.972656 23.824219 11.917969 23.835938 11.871094 23.863281 L 9.597656 25.261719 C 9.328125 25.429688 9.027344 27.070312 11 29.179688 C 12.003906 30.25 13.210938 30.546875 13.976562 30.546875 C 14.375 30.546875 14.648438 30.464844 14.707031 30.371094 L 16.105469 28.097656 C 16.191406 27.960938 16.113281 27.742188 16.054688 27.683594 L 12.277344 23.910156 C 12.242188 23.871094 12.132812 23.824219 12.023438 23.824219 Z M 12.023438 23.824219 "/>
</g>
<radialGradient id="radial0" gradientUnits="userSpaceOnUse" cx="46.5" cy="32.5" fx="46.5" fy="32.5" r="36.4726" gradientTransform="matrix(-0.3125,0,0,0.3125,40.144781,0)">
<stop offset="0.0112" style="stop-color:rgb(96.078431%,96.078431%,96.078431%);stop-opacity:1;"/>
<stop offset="0.9995" style="stop-color:rgb(74.117647%,74.117647%,74.117647%);stop-opacity:1;"/>
</radialGradient>
<mask id="mask4">
  <g filter="url(#alpha)">
<rect x="0" y="0" width="40" height="40" style="fill:rgb(0%,0%,0%);fill-opacity:0.2;stroke:none;"/>
  </g>
</mask>
<clipPath id="clip5">
  <rect x="0" y="0" width="40" height="40"/>
</clipPath>
<g id="surface17" clip-path="url(#clip5)">
<path style=" stroke:none;fill-rule:nonzero;fill:rgb(25.882353%,25.882353%,25.882353%);fill-opacity:1;" d="M 24.625 12.585938 C 25.199219 12.585938 25.742188 12.8125 26.148438 13.21875 C 26.554688 13.625 26.78125 14.167969 26.78125 14.742188 C 26.78125 15.320312 26.554688 15.863281 26.148438 16.269531 C 25.742188 16.675781 25.199219 16.898438 24.625 16.898438 C 24.050781 16.898438 23.507812 16.675781 23.101562 16.269531 C 22.257812 15.429688 22.257812 14.058594 23.101562 13.21875 C 23.507812 12.8125 24.046875 12.585938 24.625 12.585938 M 24.625 11.960938 C 23.914062 11.960938 23.199219 12.234375 22.65625 12.777344 C 21.570312 13.867188 21.570312 15.625 22.65625 16.710938 C 23.199219 17.257812 23.914062 17.527344 24.625 17.527344 C 25.335938 17.527344 26.050781 17.257812 26.59375 16.710938 C 27.679688 15.625 27.679688 13.867188 26.59375 12.777344 C 26.050781 12.234375 25.335938 11.960938 24.625 11.960938 Z M 24.625 11.960938 "/>
</g>
<mask id="mask5">
  <g filter="url(#alpha)">
<rect x="0" y="0" width="40" height="40" style="fill:rgb(0%,0%,0%);fill-opacity:0.2;stroke:none;"/>
  </g>
</mask>
<clipPath id="clip6">
  <rect x="0" y="0" width="40" height="40"/>
</clipPath>
<g id="surface20" clip-path="url(#clip6)">
<path style=" stroke:none;fill-rule:nonzero;fill:rgb(25.882353%,25.882353%,25.882353%);fill-opacity:1;" d="M 34.605469 4.984375 C 34.792969 4.984375 34.886719 5.007812 34.921875 5.019531 C 34.945312 5.074219 35.007812 5.292969 34.957031 5.890625 C 34.679688 8.96875 34.277344 10.71875 33.242188 13.386719 C 32.449219 15.464844 30.9375 17.875 29.566406 19.246094 C 24.78125 24.03125 19.757812 27.007812 16.449219 27.007812 C 15.558594 27.007812 14.804688 26.789062 14.203125 26.367188 L 14.101562 26.292969 C 13.941406 26.183594 13.804688 26.085938 13.695312 25.988281 C 13.1875 25.53125 12.917969 24.835938 12.894531 23.914062 C 12.804688 20.570312 15.925781 15.054688 20.480469 10.496094 C 21.910156 9.070312 24.429688 7.488281 26.601562 6.65625 C 26.609375 6.652344 26.617188 6.648438 26.621094 6.648438 C 28.832031 5.742188 30.367188 5.460938 34.175781 5.011719 C 34.339844 4.992188 34.484375 4.984375 34.605469 4.984375 M 34.605469 4.046875 C 34.445312 4.046875 34.269531 4.058594 34.070312 4.082031 C 30.117188 4.542969 28.554688 4.84375 26.273438 5.777344 C 24.046875 6.628906 21.40625 8.246094 19.820312 9.832031 C 13.507812 16.144531 10.035156 23.953125 13.070312 26.679688 C 13.25 26.84375 13.453125 26.980469 13.664062 27.128906 C 14.445312 27.679688 15.386719 27.941406 16.449219 27.941406 C 20.195312 27.941406 25.40625 24.730469 30.230469 19.910156 C 31.746094 18.394531 33.296875 15.882812 34.117188 13.722656 C 35.171875 11 35.601562 9.152344 35.890625 5.976562 C 36.011719 4.578125 35.675781 4.046875 34.605469 4.046875 Z M 34.605469 4.046875 "/>
</g>
<mask id="mask6">
  <g filter="url(#alpha)">
<rect x="0" y="0" width="40" height="40" style="fill:rgb(0%,0%,0%);fill-opacity:0.2;stroke:none;"/>
  </g>
</mask>
<clipPath id="clip7">
  <rect x="0" y="0" width="40" height="40"/>
</clipPath>
<g id="surface23" clip-path="url(#clip7)">
<path style=" stroke:none;fill-rule:nonzero;fill:rgb(25.882353%,25.882353%,25.882353%);fill-opacity:1;" d="M 18.886719 19.445312 C 19.257812 19.445312 19.605469 19.589844 19.867188 19.851562 C 20.132812 20.117188 20.273438 20.460938 20.273438 20.835938 C 20.273438 21.207031 20.132812 21.554688 19.867188 21.816406 C 19.605469 22.078125 19.257812 22.222656 18.886719 22.222656 C 18.515625 22.222656 18.167969 22.078125 17.90625 21.816406 C 17.644531 21.554688 17.5 21.207031 17.5 20.835938 C 17.5 20.460938 17.644531 20.117188 17.90625 19.851562 C 18.171875 19.589844 18.519531 19.445312 18.886719 19.445312 M 18.886719 18.820312 C 18.371094 18.820312 17.859375 19.019531 17.464844 19.414062 C 16.679688 20.195312 16.679688 21.472656 17.464844 22.257812 C 17.859375 22.648438 18.371094 22.847656 18.886719 22.847656 C 19.402344 22.847656 19.914062 22.648438 20.308594 22.257812 C 21.09375 21.472656 21.09375 20.195312 20.308594 19.414062 C 19.917969 19.019531 19.402344 18.820312 18.886719 18.820312 Z M 18.886719 18.820312 "/>
</g>
</defs>
<g id="surface1">
<path style=" stroke:none;fill-rule:nonzero;fill:url(#linear0);" d="M 6.929688 28.253906 C 4.371094 30.808594 4.234375 35.46875 4.234375 35.46875 C 4.234375 35.46875 8.890625 35.332031 11.449219 32.773438 C 14.007812 30.21875 15.070312 27.132812 13.820312 25.886719 C 12.570312 24.636719 9.484375 25.695312 6.929688 28.253906 Z M 6.929688 28.253906 "/>
<use xlink:href="#surface5" mask="url(#mask0)"/>
<path style=" stroke:none;fill-rule:nonzero;fill:url(#linear1);" d="M 7.703125 29.152344 C 6.09375 30.761719 6.007812 33.695312 6.007812 33.695312 C 6.007812 33.695312 8.9375 33.605469 10.546875 31.996094 C 12.15625 30.386719 12.824219 28.445312 12.039062 27.660156 C 11.25 26.875 9.316406 27.539062 7.703125 29.152344 Z M 7.703125 29.152344 "/>
<path style=" stroke:none;fill-rule:nonzero;fill:rgb(32.941176%,43.137255%,47.843137%);fill-opacity:1;" d="M 11.003906 29.179688 C 12.535156 30.816406 14.542969 30.644531 14.710938 30.375 L 16.109375 28.101562 C 16.195312 27.960938 16.117188 27.742188 16.054688 27.6875 L 12.277344 23.910156 C 12.21875 23.851562 12.007812 23.78125 11.871094 23.867188 L 9.597656 25.265625 C 9.332031 25.429688 9.03125 27.070312 11.003906 29.179688 Z M 11.003906 29.179688 "/>
<path style=" stroke:none;fill-rule:nonzero;fill:rgb(0.784314%,53.333333%,81.960784%);fill-opacity:1;" d="M 21.289062 33.335938 C 20.976562 33.589844 20.558594 33.535156 20.507812 33.160156 C 20.359375 32.121094 20.457031 30.039062 19.148438 28.730469 C 17.875 27.457031 15.804688 27.269531 15.804688 27.269531 L 23.601562 23.425781 C 23.601562 23.425781 25.070312 25.691406 24.261719 28.914062 C 23.585938 31.582031 22.433594 32.402344 21.289062 33.335938 Z M 21.289062 33.335938 "/>
<use xlink:href="#surface8" mask="url(#mask1)"/>
<path style=" stroke:none;fill-rule:nonzero;fill:rgb(0.784314%,53.333333%,81.960784%);fill-opacity:1;" d="M 6.460938 18.953125 C 6.152344 19.214844 6.261719 19.683594 6.636719 19.738281 C 7.675781 19.882812 9.757812 19.789062 11.066406 21.09375 C 12.339844 22.367188 12.605469 24.175781 12.605469 24.175781 L 16.375 16.195312 C 16.375 16.195312 14.382812 15.261719 11.480469 16.015625 C 9.480469 16.539062 7.496094 18.058594 6.460938 18.953125 Z M 6.460938 18.953125 "/>
<use xlink:href="#surface11" mask="url(#mask2)"/>
<use xlink:href="#surface14" mask="url(#mask3)"/>
<path style=" stroke:none;fill-rule:nonzero;fill:url(#radial0);" d="M 26.273438 5.777344 C 27.539062 6.359375 29.242188 7.359375 30.871094 8.988281 C 31.445312 9.5625 31.9375 10.148438 32.363281 10.726562 C 33.183594 11.835938 33.746094 12.894531 34.117188 13.722656 C 33.292969 15.882812 31.742188 18.394531 30.226562 19.910156 C 24.039062 26.101562 17.199219 29.632812 13.664062 27.132812 C 13.457031 26.984375 13.253906 26.851562 13.070312 26.683594 C 10.035156 23.957031 13.507812 16.148438 19.820312 9.835938 C 21.40625 8.25 24.046875 6.632812 26.273438 5.777344 Z M 26.273438 5.777344 "/>
<path style=" stroke:none;fill-rule:nonzero;fill:rgb(27.058824%,35.294118%,39.215686%);fill-opacity:1;" d="M 26.589844 12.777344 C 25.503906 11.691406 23.742188 11.691406 22.65625 12.777344 C 21.570312 13.863281 21.570312 15.625 22.65625 16.710938 C 23.742188 17.796875 25.503906 17.796875 26.589844 16.710938 C 27.675781 15.625 27.675781 13.863281 26.589844 12.777344 Z M 26.589844 12.777344 "/>
<use xlink:href="#surface17" mask="url(#mask4)"/>
<path style=" stroke:none;fill-rule:nonzero;fill:rgb(27.058824%,35.294118%,39.215686%);fill-opacity:1;" d="M 20.3125 19.410156 C 19.527344 18.625 18.25 18.625 17.464844 19.410156 C 16.679688 20.199219 16.679688 21.472656 17.464844 22.257812 C 18.25 23.042969 19.527344 23.042969 20.3125 22.257812 C 21.097656 21.472656 21.097656 20.199219 20.3125 19.410156 Z M 20.3125 19.410156 "/>
<path style=" stroke:none;fill-rule:nonzero;fill:rgb(89.803922%,22.352941%,20.784314%);fill-opacity:1;" d="M 26.273438 5.777344 C 25.695312 8.632812 30.730469 14.21875 34.117188 13.722656 C 35.167969 11 35.601562 9.152344 35.886719 5.976562 C 36.035156 4.367188 35.5625 3.90625 34.070312 4.082031 C 30.117188 4.542969 28.554688 4.84375 26.273438 5.777344 Z M 26.273438 5.777344 "/>
<use xlink:href="#surface20" mask="url(#mask5)"/>
<use xlink:href="#surface23" mask="url(#mask6)"/>
</g>
</svg>
