<?xml version="1.0" encoding="UTF-8"?>
<svg xmlns="http://www.w3.org/2000/svg" xmlns:xlink="http://www.w3.org/1999/xlink" width="30pt" height="30pt" viewBox="0 0 30 30" version="1.1">
<g id="surface1">
<path style=" stroke:none;fill-rule:nonzero;fill:rgb(17.647059%,32.156863%,48.627451%);fill-opacity:1;" d="M 16.414062 24.96875 L 8.3125 24.96875 C 7.167969 24.96875 6.238281 24.039062 6.238281 22.894531 L 6.238281 20.160156 C 6.238281 19.664062 6.636719 19.265625 7.132812 19.265625 C 7.625 19.265625 8.023438 19.664062 8.023438 20.160156 L 8.023438 22.894531 C 8.023438 23.054688 8.15625 23.183594 8.3125 23.183594 L 16.414062 23.183594 C 16.90625 23.183594 17.304688 23.582031 17.304688 24.074219 C 17.304688 24.570312 16.90625 24.96875 16.414062 24.96875 Z M 16.414062 24.96875 "/>
<path style=" stroke:none;fill-rule:nonzero;fill:rgb(80.784314%,90.980392%,98.039216%);fill-opacity:1;" d="M 23.992188 20.71875 L 20.394531 24.21875 L 20.394531 28.09375 C 20.394531 28.5625 20.960938 28.800781 21.296875 28.46875 L 29.105469 20.71875 L 21.296875 12.96875 C 20.960938 12.636719 20.394531 12.875 20.394531 13.34375 L 20.394531 17.21875 Z M 23.992188 20.71875 "/>
<path style=" stroke:none;fill-rule:nonzero;fill:rgb(17.647059%,32.156863%,48.627451%);fill-opacity:1;" d="M 29.734375 20.085938 L 21.925781 12.335938 C 21.65625 12.066406 21.304688 11.921875 20.929688 11.921875 C 20.140625 11.921875 19.5 12.558594 19.5 13.34375 L 19.5 16.46875 L 13.753906 16.46875 C 13.261719 16.46875 12.859375 16.867188 12.859375 17.359375 C 12.859375 17.855469 13.261719 18.253906 13.753906 18.253906 L 20.175781 18.253906 L 22.710938 20.71875 L 19.769531 23.578125 C 19.597656 23.746094 19.5 23.976562 19.5 24.21875 L 19.5 28.09375 C 19.5 28.878906 20.140625 29.515625 20.929688 29.515625 C 21.304688 29.515625 21.65625 29.371094 21.925781 29.101562 L 29.734375 21.351562 C 29.90625 21.183594 30 20.957031 30 20.71875 C 30 20.480469 29.90625 20.253906 29.734375 20.085938 Z M 21.289062 27.21875 L 21.289062 24.59375 L 24.613281 21.359375 C 24.785156 21.191406 24.882812 20.960938 24.882812 20.71875 C 24.882812 20.476562 24.785156 20.246094 24.613281 20.078125 L 21.289062 16.84375 L 21.289062 14.21875 L 27.835938 20.71875 Z M 21.289062 27.21875 "/>
<path style=" stroke:none;fill-rule:nonzero;fill:rgb(17.647059%,32.156863%,48.627451%);fill-opacity:1;" d="M 22.867188 10.734375 C 22.375 10.734375 21.976562 10.335938 21.976562 9.839844 L 21.976562 7.105469 C 21.976562 6.945312 21.84375 6.816406 21.6875 6.816406 L 13.585938 6.816406 C 13.09375 6.816406 12.695312 6.417969 12.695312 5.925781 C 12.695312 5.429688 13.09375 5.03125 13.585938 5.03125 L 21.6875 5.03125 C 22.832031 5.03125 23.761719 5.960938 23.761719 7.105469 L 23.761719 9.839844 C 23.761719 10.335938 23.363281 10.734375 22.867188 10.734375 Z M 22.867188 10.734375 "/>
<path style=" stroke:none;fill-rule:nonzero;fill:rgb(80.784314%,90.980392%,98.039216%);fill-opacity:1;" d="M 6.007812 9.28125 L 9.605469 5.78125 L 9.605469 1.90625 C 9.605469 1.4375 9.035156 1.199219 8.703125 1.53125 L 0.894531 9.28125 L 8.703125 17.03125 C 9.035156 17.363281 9.605469 17.125 9.605469 16.65625 L 9.605469 12.78125 Z M 6.007812 9.28125 "/>
<path style=" stroke:none;fill-rule:nonzero;fill:rgb(17.647059%,32.156863%,48.627451%);fill-opacity:1;" d="M 16.246094 11.746094 L 9.824219 11.746094 L 7.289062 9.28125 L 10.226562 6.421875 C 10.402344 6.253906 10.5 6.023438 10.5 5.78125 L 10.5 1.90625 C 10.5 1.121094 9.859375 0.484375 9.070312 0.484375 C 8.695312 0.484375 8.34375 0.628906 8.074219 0.898438 L 0.265625 8.648438 C 0.09375 8.816406 0 9.042969 0 9.28125 C 0 9.519531 0.09375 9.746094 0.265625 9.914062 L 8.074219 17.664062 C 8.34375 17.933594 8.695312 18.078125 9.070312 18.078125 C 9.4375 18.078125 9.785156 17.941406 10.050781 17.691406 C 10.339844 17.421875 10.5 17.054688 10.5 16.65625 L 10.5 13.53125 L 16.246094 13.53125 C 16.738281 13.53125 17.140625 13.132812 17.140625 12.640625 C 17.140625 12.144531 16.738281 11.746094 16.246094 11.746094 Z M 8.710938 15.78125 L 2.164062 9.28125 L 8.710938 2.78125 L 8.710938 5.40625 L 5.386719 8.640625 C 5.214844 8.808594 5.117188 9.039062 5.117188 9.28125 C 5.117188 9.523438 5.214844 9.753906 5.386719 9.921875 L 8.710938 13.15625 Z M 8.710938 15.78125 "/>
</g>
</svg>
