<?xml version="1.0" encoding="UTF-8"?>
<svg xmlns="http://www.w3.org/2000/svg" xmlns:xlink="http://www.w3.org/1999/xlink" width="30pt" height="30pt" viewBox="0 0 30 30" version="1.1">
<g id="surface1">
<path style=" stroke:none;fill-rule:nonzero;fill:rgb(10.588235%,36.078431%,56.862745%);fill-opacity:1;" d="M 0 7.066406 L 30 7.066406 L 30 8.824219 L 0 8.824219 Z M 0 7.066406 "/>
<path style=" stroke:none;fill-rule:nonzero;fill:rgb(10.588235%,36.078431%,56.862745%);fill-opacity:1;" d="M 0 14.125 L 30 14.125 L 30 15.882812 L 0 15.882812 Z M 0 14.125 "/>
<path style=" stroke:none;fill-rule:nonzero;fill:rgb(10.588235%,36.078431%,56.862745%);fill-opacity:1;" d="M 0 21.480469 L 30 21.480469 L 30 23.238281 L 0 23.238281 Z M 0 21.480469 "/>
<path style=" stroke:none;fill-rule:nonzero;fill:rgb(5.490196%,18.039216%,29.411765%);fill-opacity:1;" d="M 15.492188 21.480469 L 30 21.480469 L 30 23.238281 L 15.492188 23.238281 Z M 15.492188 21.480469 "/>
<path style=" stroke:none;fill-rule:nonzero;fill:rgb(98.431373%,29.803922%,18.039216%);fill-opacity:1;" d="M 5.632812 11.804688 C 3.871094 11.804688 2.433594 13.242188 2.433594 15.003906 C 2.433594 16.769531 3.871094 18.203125 5.632812 18.203125 C 7.398438 18.203125 8.832031 16.769531 8.832031 15.003906 C 8.832031 13.242188 7.398438 11.804688 5.632812 11.804688 Z M 5.632812 11.804688 "/>
<path style=" stroke:none;fill-rule:nonzero;fill:rgb(99.215686%,74.901961%,0%);fill-opacity:1;" d="M 15.492188 19.15625 C 13.726562 19.15625 12.292969 20.59375 12.292969 22.359375 C 12.292969 24.121094 13.726562 25.558594 15.492188 25.558594 C 17.257812 25.558594 18.691406 24.121094 18.691406 22.359375 C 18.691406 20.59375 17.257812 19.15625 15.492188 19.15625 Z M 15.492188 19.15625 "/>
<path style=" stroke:none;fill-rule:nonzero;fill:rgb(100%,56.862745%,0%);fill-opacity:1;" d="M 15.492188 19.15625 L 15.492188 25.558594 C 17.257812 25.558594 18.691406 24.121094 18.691406 22.359375 C 18.691406 20.59375 17.257812 19.15625 15.492188 19.15625 Z M 15.492188 19.15625 "/>
<path style=" stroke:none;fill-rule:nonzero;fill:rgb(5.490196%,18.039216%,29.411765%);fill-opacity:1;" d="M 15.492188 7.066406 L 30 7.066406 L 30 8.824219 L 15.492188 8.824219 Z M 15.492188 7.066406 "/>
<path style=" stroke:none;fill-rule:nonzero;fill:rgb(5.490196%,18.039216%,29.411765%);fill-opacity:1;" d="M 15.492188 14.125 L 30 14.125 L 30 15.882812 L 15.492188 15.882812 Z M 15.492188 14.125 "/>
<path style=" stroke:none;fill-rule:nonzero;fill:rgb(0%,84.313725%,87.45098%);fill-opacity:1;" d="M 21.902344 4.453125 C 20.140625 4.453125 18.703125 5.886719 18.703125 7.652344 C 18.703125 9.417969 20.140625 10.851562 21.902344 10.851562 C 23.667969 10.851562 25.105469 9.417969 25.105469 7.652344 C 25.105469 5.886719 23.667969 4.453125 21.902344 4.453125 Z M 21.902344 4.453125 "/>
</g>
</svg>
